<svg width="1224" height="446" viewBox="0 0 1224 446" fill="none" xmlns="http://www.w3.org/2000/svg">
<line x1="222.744" y1="67.2437" x2="222.744" y2="379.244" stroke="#9C9034"/>
<path d="M66.7386 223.239C66.7386 182.931 80.6155 143.123 111.369 112.369C142.123 81.6155 181.931 66.7386 222.239 66.7386M222.739 379.239C263.046 379.239 303.354 365.862 334.108 335.108C364.862 304.354 380.239 264.046 380.239 223.739C380.239 195.851 372.46 167.462 357.739 142.739" stroke="#9C9034" stroke-width="3"/>
<path d="M111.723 111.723C142.379 81.0666 182.558 65.7388 222.739 65.7388C262.919 65.7389 303.098 81.0666 333.754 111.723C364.411 142.379 379.738 182.558 379.738 222.739C379.738 262.919 364.411 303.098 333.754 333.754C303.098 364.411 262.919 379.738 222.739 379.738C182.558 379.738 142.379 364.411 111.723 333.754C81.0666 303.098 65.7388 262.919 65.7388 222.739C65.7388 182.558 81.0666 142.379 111.723 111.723Z" stroke="#9C9034"/>
<g filter="url(#filter0_f_10_6)">
<rect x="222.239" y="67.6529" width="220.739" height="220.032" transform="rotate(45 222.239 67.6529)" stroke="#DAB330" stroke-width="2"/>
</g>
<path d="M222.719 143.239C231.885 146.405 252.019 159.539 259.219 186.739C261.719 203.239 263.219 217.739 246.219 246.739C229.219 275.739 222.719 305.739 222.719 309.739H222.739C222.739 305.739 216.239 275.739 199.239 246.739C182.239 217.739 183.739 203.239 186.239 186.739C193.439 159.539 213.572 146.405 222.739 143.239H222.719Z" stroke="#9C9034" stroke-width="4"/>
<path d="M222.739 143.239V306.239" stroke="#9C9034" stroke-width="2"/>
<path d="M250.739 211.239C250.072 208.739 246.339 202.739 236.739 198.739C227.139 194.739 223.405 184.739 222.739 180.239C222.072 184.739 218.339 194.739 208.739 198.739C199.139 202.739 195.405 208.739 194.739 211.239" stroke="#9C9034" stroke-width="2"/>
<g filter="url(#filter1_f_10_6)">
<path d="M250.739 211.239C250.072 208.739 246.339 202.739 236.739 198.739C227.139 194.739 223.405 184.739 222.739 180.239C222.072 184.739 218.339 194.739 208.739 198.739C199.139 202.739 195.405 208.739 194.739 211.239" stroke="#F4E67C" stroke-width="2"/>
</g>
<path d="M237.239 237.739C230.21 234.771 223.227 221.577 222.739 218.239C222.251 221.577 214.767 234.771 207.739 237.739" stroke="#9C9034" stroke-width="2"/>
<circle cx="222.239" cy="141.239" r="18.5" stroke="#9C9034"/>
<circle cx="223.739" cy="228.739" r="117" stroke="#9C9034"/>
<rect x="126.946" y="223.239" width="134.765" height="134.765" transform="rotate(-45 126.946 223.239)" stroke="#9C9034"/>
<rect x="126.946" y="223.239" width="134.765" height="134.765" transform="rotate(-45 126.946 223.239)" stroke="black" stroke-opacity="0.2"/>
<path d="M317.733 223.239C324.895 112.116 254.07 102.258 222.239 128.147L222.739 127.739C190.739 101.739 119.539 111.639 126.739 223.239" stroke="#9C9034"/>
<path d="M126.739 223.239C119.576 334.362 191.407 344.219 223.239 318.33L222.739 318.739C254.739 344.739 324.939 334.839 317.739 223.239" stroke="#9C9034"/>
<path d="M244.239 250.739L282.239 250.739L282.739 250.739L282.739 196.739L282.239 196.739L261.239 196.739" stroke="#9C9034"/>
<line x1="392.739" y1="142.239" x2="392.739" y2="222.239" stroke="#9C9034"/>
<line x1="222.239" y1="65.7386" x2="413.239" y2="65.7386" stroke="#9C9034"/>
<line x1="413.739" y1="66.2386" x2="413.739" y2="380.239" stroke="#9C9034"/>
<line x1="414.239" y1="379.739" x2="224.239" y2="379.739" stroke="#9C9034"/>
<line x1="222.239" y1="142.739" x2="358.239" y2="142.739" stroke="#9C9034"/>
<line x1="392.239" y1="222.739" x2="413.239" y2="222.739" stroke="#9C9034"/>
<line x1="66.2386" y1="222.739" x2="378.239" y2="222.739" stroke="#9C9034"/>
<path d="M258.239 391.239V165.239H186.239V391.239" stroke="#9C9034"/>
<g filter="url(#filter2_f_10_6)">
<path d="M66.7386 222.739C66.7386 182.431 80.6155 142.123 111.369 111.369C142.123 80.6155 181.931 66.7386 222.239 66.7386M222.739 380.239C263.046 380.239 303.354 364.862 334.108 334.108C364.862 303.354 380.239 264.046 380.239 223.739C380.239 195.851 372.878 166.962 358.156 142.239" stroke="#FFE100" stroke-width="3"/>
</g>
<g filter="url(#filter3_df_10_6)">
<path d="M222.719 143.239C231.885 146.405 252.019 159.539 259.219 186.739C261.719 203.239 263.219 217.739 246.219 246.739C229.219 275.739 222.719 305.739 222.719 309.739H222.739C222.739 305.739 216.239 275.739 199.239 246.739C182.239 217.739 183.739 203.239 186.239 186.739C193.439 159.539 213.572 146.405 222.739 143.239H222.719Z" stroke="#FFE837" stroke-width="3" shape-rendering="crispEdges"/>
</g>
<line x1="357.239" y1="143.239" x2="393.239" y2="143.239" stroke="#CDB924" stroke-width="2"/>
<g filter="url(#filter4_f_10_6)">
<path d="M222.739 143.239V306.239" stroke="#F4E67C" stroke-width="2"/>
</g>
<g filter="url(#filter5_f_10_6)">
<path d="M237.239 237.739C230.21 234.771 223.227 221.577 222.739 218.239C222.251 221.577 214.767 234.771 207.739 237.739" stroke="#F4E67C" stroke-width="2"/>
</g>
<g filter="url(#filter6_dd_10_6)">
<path d="M464.8 339V115.5H511.3V212.1H598.3V115.5H644.8V339H598.3V252.6H511.3V339H464.8ZM684.527 339V115.5H720.227L840.227 273.6L821.027 278.1V115.5H867.527V339H831.527L713.627 179.7L731.027 175.2V339H684.527ZM947.383 339V156H890.683V115.5H1049.68V156H993.883V339H947.383ZM1056.21 339V301.5L1157.91 156H1062.21V115.5H1216.71V153L1115.31 298.5H1219.71V339H1056.21Z" fill="#DAB330"/>
</g>
<defs>
<filter id="filter0_f_10_6" x="64.1386" y="65.1386" width="316.7" height="316.7" filterUnits="userSpaceOnUse" color-interpolation-filters="sRGB">
<feFlood flood-opacity="0" result="BackgroundImageFix"/>
<feBlend mode="normal" in="SourceGraphic" in2="BackgroundImageFix" result="shape"/>
<feGaussianBlur stdDeviation="0.55" result="effect1_foregroundBlur_10_6"/>
</filter>
<filter id="filter1_f_10_6" x="189.772" y="176.092" width="65.9325" height="39.4042" filterUnits="userSpaceOnUse" color-interpolation-filters="sRGB">
<feFlood flood-opacity="0" result="BackgroundImageFix"/>
<feBlend mode="normal" in="SourceGraphic" in2="BackgroundImageFix" result="shape"/>
<feGaussianBlur stdDeviation="2" result="effect1_foregroundBlur_10_6"/>
</filter>
<filter id="filter2_f_10_6" x="59.2386" y="59.2386" width="328.5" height="328.5" filterUnits="userSpaceOnUse" color-interpolation-filters="sRGB">
<feFlood flood-opacity="0" result="BackgroundImageFix"/>
<feBlend mode="normal" in="SourceGraphic" in2="BackgroundImageFix" result="shape"/>
<feGaussianBlur stdDeviation="3" result="effect1_foregroundBlur_10_6"/>
</filter>
<filter id="filter3_df_10_6" x="177.219" y="135.739" width="91.0195" height="183.5" filterUnits="userSpaceOnUse" color-interpolation-filters="sRGB">
<feFlood flood-opacity="0" result="BackgroundImageFix"/>
<feColorMatrix in="SourceAlpha" type="matrix" values="0 0 0 0 0 0 0 0 0 0 0 0 0 0 0 0 0 0 127 0" result="hardAlpha"/>
<feOffset dy="4"/>
<feGaussianBlur stdDeviation="2"/>
<feComposite in2="hardAlpha" operator="out"/>
<feColorMatrix type="matrix" values="0 0 0 0 0 0 0 0 0 0 0 0 0 0 0 0 0 0 0.36 0"/>
<feBlend mode="normal" in2="BackgroundImageFix" result="effect1_dropShadow_10_6"/>
<feBlend mode="normal" in="SourceGraphic" in2="effect1_dropShadow_10_6" result="shape"/>
<feGaussianBlur stdDeviation="3" result="effect2_foregroundBlur_10_6"/>
</filter>
<filter id="filter4_f_10_6" x="217.739" y="139.239" width="10" height="171" filterUnits="userSpaceOnUse" color-interpolation-filters="sRGB">
<feFlood flood-opacity="0" result="BackgroundImageFix"/>
<feBlend mode="normal" in="SourceGraphic" in2="BackgroundImageFix" result="shape"/>
<feGaussianBlur stdDeviation="2" result="effect1_foregroundBlur_10_6"/>
</filter>
<filter id="filter5_f_10_6" x="203.35" y="214.094" width="38.278" height="28.5659" filterUnits="userSpaceOnUse" color-interpolation-filters="sRGB">
<feFlood flood-opacity="0" result="BackgroundImageFix"/>
<feBlend mode="normal" in="SourceGraphic" in2="BackgroundImageFix" result="shape"/>
<feGaussianBlur stdDeviation="2" result="effect1_foregroundBlur_10_6"/>
</filter>
<filter id="filter6_dd_10_6" x="460.8" y="115.5" width="762.91" height="231.5" filterUnits="userSpaceOnUse" color-interpolation-filters="sRGB">
<feFlood flood-opacity="0" result="BackgroundImageFix"/>
<feColorMatrix in="SourceAlpha" type="matrix" values="0 0 0 0 0 0 0 0 0 0 0 0 0 0 0 0 0 0 127 0" result="hardAlpha"/>
<feOffset dy="4"/>
<feGaussianBlur stdDeviation="2"/>
<feComposite in2="hardAlpha" operator="out"/>
<feColorMatrix type="matrix" values="0 0 0 0 0 0 0 0 0 0 0 0 0 0 0 0 0 0 0.25 0"/>
<feBlend mode="normal" in2="BackgroundImageFix" result="effect1_dropShadow_10_6"/>
<feColorMatrix in="SourceAlpha" type="matrix" values="0 0 0 0 0 0 0 0 0 0 0 0 0 0 0 0 0 0 127 0" result="hardAlpha"/>
<feOffset dy="4"/>
<feGaussianBlur stdDeviation="2"/>
<feComposite in2="hardAlpha" operator="out"/>
<feColorMatrix type="matrix" values="0 0 0 0 0 0 0 0 0 0 0 0 0 0 0 0 0 0 0.25 0"/>
<feBlend mode="normal" in2="effect1_dropShadow_10_6" result="effect2_dropShadow_10_6"/>
<feBlend mode="normal" in="SourceGraphic" in2="effect2_dropShadow_10_6" result="shape"/>
</filter>
</defs>
</svg>
